<svg class="svg-icon" style="width: 1em; height: 1em;vertical-align: middle;fill: currentColor;overflow: hidden;" viewBox="0 0 1024 1024" version="1.1" xmlns="http://www.w3.org/2000/svg"><path d="M515.78513063 522.82861671m-438.99768254 0a438.99769858 438.99769858 0 1 0 877.99538113 0 438.99769858 438.99769858 0 1 0-877.99538113 0Z" fill="#3B8FCE" /><path d="M467.00761388 737.44970978c-0.29267042 0-0.40973876 0.25364255-0.89750183 0h-0.01952185a49.07018735 49.07018735 0 0 1-33.71501846-14.39913321l-155.95148892-155.97099503c-9.52137661-9.52137661-14.28206495-22.00842217-14.28206488-34.49546769s4.76068831-24.9740913 14.28206488-34.49546783a48.73850463 48.73850463 0 0 1 68.97141362 0l122.76326151 122.76327719 258.20869219-240.99998683a48.77751675 48.77751675 0 1 1 66.57156391 71.33225199L500.44948414 724.18221433c-4.31193751 4.0582951-9.17017189 7.18004431-14.34059892 9.36528021-6.08743449 2.61448084-12.60411388 3.90219875-19.10127134 3.90221524z" fill="#FFFFFF" /></svg>